<?xml version="1.0" encoding="utf-8"?>
<!-- Generator: Adobe Illustrator 23.0.2, SVG Export Plug-In . SVG Version: 6.00 Build 0)  -->
<svg version="1.1" id="Layer_1" xmlns="http://www.w3.org/2000/svg" xmlns:xlink="http://www.w3.org/1999/xlink" x="0px" y="0px"
	 viewBox="0 0 248 158" style="enable-background:new 0 0 248 158;" xml:space="preserve">
<g>
	<path d="M35.9,154.8c-10.3,0-18.1-2.3-23.6-7c-5.5-4.7-8.2-12.1-8.2-22.4V20.2c0-1.6,0.7-2.8,2.1-3.7c1.4-0.9,2.8-1.3,4.3-1.3
		c1.7,0,3.3,0.4,4.6,1.3c1.3,0.9,2,2.1,2,3.7v40h26c1.3,0,2.4,0.5,3.2,1.6c0.8,1.1,1.2,2.3,1.2,3.8c0,1.5-0.4,2.7-1.2,3.8
		c-0.8,1.1-1.9,1.6-3.2,1.6h-26v54.4c0,6.5,1.4,11.1,4.2,13.7c2.8,2.6,7.7,3.9,14.6,3.9h5.6c1.9,0,3.3,0.6,4.3,1.7
		c1,1.1,1.5,2.5,1.5,4.1s-0.5,3-1.5,4.2c-1,1.2-2.4,1.8-4.3,1.8H35.9z"/>
	<path d="M100.9,156.2c-7.1,0-13.5-1.7-19.3-5.2c-5.8-3.5-10.4-8.1-13.8-13.9c-3.4-5.8-5.1-12-5.1-18.5V65.4c0-1.3,0.7-2.5,2-3.6
		c1.3-1.1,2.9-1.6,4.6-1.6c1.7,0,3.2,0.5,4.5,1.6c1.3,1.1,1.9,2.3,1.9,3.6v53.2c0,4.4,1.1,8.5,3.4,12.4c2.3,3.9,5.3,7,9.1,9.5
		c3.8,2.5,8,3.7,12.7,3.7c4.7,0,8.9-1.2,12.6-3.6c3.7-2.4,6.7-5.6,8.9-9.5c2.2-3.9,3.3-8.1,3.3-12.5V65.2c0-1.3,0.7-2.5,2-3.5
		c1.3-1,2.9-1.5,4.6-1.5c2,0,3.6,0.5,4.7,1.5c1.1,1,1.7,2.2,1.7,3.5v53.4c0,6.7-1.7,12.9-5.1,18.6c-3.4,5.7-8,10.3-13.8,13.8
		C114,154.5,107.7,156.2,100.9,156.2z"/>
	<path d="M169.1,154.8c-1.7,0-3.2-0.5-4.5-1.6c-1.3-1.1-1.9-2.3-1.9-3.6V65.2c0-1.6,0.6-2.8,1.9-3.7c1.3-0.9,2.8-1.3,4.5-1.3
		c1.7,0,3.2,0.4,4.4,1.3c1.2,0.9,1.8,2.1,1.8,3.7V75c1.5-2.8,3.5-5.4,6-7.8c2.5-2.4,5.5-4.4,9-5.9c3.5-1.5,7.4-2.3,11.8-2.3h7
		c1.5,0,2.7,0.6,3.7,1.8s1.5,2.6,1.5,4.2c0,1.7-0.5,3.2-1.5,4.3c-1,1.1-2.2,1.7-3.7,1.7h-7c-4.4,0-8.6,1.2-12.7,3.6
		c-4.1,2.4-7.4,5.7-9.9,10c-2.5,4.3-3.8,9.5-3.8,15.6v49.4c0,1.3-0.6,2.5-1.9,3.6C172.5,154.3,171,154.8,169.1,154.8z"/>
	<path d="M236.9,154.8c-1.7,0-3.2-0.5-4.5-1.6c-1.3-1.1-1.9-2.3-1.9-3.6V7.2c0-1.6,0.6-2.8,1.9-3.7c1.3-0.9,2.8-1.3,4.5-1.3
		c1.9,0,3.4,0.4,4.7,1.3c1.3,0.9,1.9,2.1,1.9,3.7v142.4c0,1.3-0.6,2.5-1.9,3.6C240.3,154.3,238.8,154.8,236.9,154.8z"/>
</g>
</svg>
